<?xml version="1.0" encoding="UTF-8" standalone="no" ?>
<!DOCTYPE svg PUBLIC "-//W3C//DTD SVG 1.1//EN" "http://www.w3.org/Graphics/SVG/1.1/DTD/svg11.dtd">
<svg xmlns="http://www.w3.org/2000/svg" xmlns:xlink="http://www.w3.org/1999/xlink" version="1.1" width="128" height="128" viewBox="0 0 128 128" xml:space="preserve">
<desc>Created with Fabric.js 5.2.4</desc>
<defs>
</defs>
<rect x="0" y="0" width="100%" height="100%" fill="transparent"></rect>
<g transform="matrix(1 0 0 1 64 64)" id="c0832600-8902-490d-99f5-460ea3d4e1db"  >
<rect style="stroke: none; stroke-width: 1; stroke-dasharray: none; stroke-linecap: butt; stroke-dashoffset: 0; stroke-linejoin: miter; stroke-miterlimit: 4; fill: rgb(255,255,255); fill-rule: nonzero; opacity: 1; visibility: hidden;" vector-effect="non-scaling-stroke"  x="-64" y="-64" rx="0" ry="0" width="128" height="128" />
</g>
<g transform="matrix(Infinity NaN NaN Infinity 0 0)" id="7cc5f20f-7a98-40bc-a2ef-12b05093b6d9"  >
</g>
<g transform="matrix(2.21 0 0 2.21 64 64)"  >
<g style="" vector-effect="non-scaling-stroke"   >
		<g transform="matrix(3.78 0 0 3.78 -0.06 -12.51)" id="path879"  >
<path style="stroke: rgb(0, 0, 0); stroke-width: 0.10000001; stroke-dasharray: none; stroke-linecap: butt; stroke-dashoffset: 0; stroke-linejoin: miter; stroke-miterlimit: 4; fill: rgb(0,0,0); fill-rule: nonzero; opacity: 1;" vector-effect="non-scaling-stroke"  transform=" translate(-7.98, -285.7)" d="M 3.7779045 285.74449 L 3.8853615 285.61933 L 3.8766715 285.60922999999997 L 3.5345818 285.20239 L 3.0742894 284.65497 L 4.0214169 283.86135 L 4.536978700000001 284.47700000000003 L 4.8121381 284.80558 L 4.9710354 284.70496 L 5.6062596 284.35747000000003 L 5.9822953 284.16547 L 5.9791053 284.15357 L 5.9591202999999995 284.07927 L 5.9188602999999995 283.93002 L 5.906405299999999 283.88392 L 5.655054499999999 282.95191 L 6.8310016 282.6362 L 7.1470584 283.81217 L 7.148078399999999 283.81617 L 7.149013899999999 283.81917 L 7.149645399999999 283.82117 L 7.150815399999999 283.82517 L 7.152505399999999 283.83117 L 7.223149399999999 283.81867 L 7.261758399999999 283.81167 L 7.341554399999999 283.80567 L 7.474847399999999 283.79767000000004 L 7.501204399999999 283.79567000000003 L 7.503014399999999 283.79552 L 8.079896199999999 283.74692 L 8.349928899999998 283.74692 L 8.362672899999998 283.74692 L 8.352534899999998 283.74791999999997 L 8.353994899999998 283.74866999999995 L 8.367897899999999 283.75566999999995 L 8.528301399999998 283.75566999999995 L 8.529931399999999 283.74666999999994 L 8.530131299999999 283.74566999999996 L 8.748434 282.50483999999994 L 8.98594 282.54693999999995 L 9.9562388 282.71912999999995 L 9.7450902 283.91373999999996 L 9.7378502 283.95503999999994 L 9.7361602 283.96503999999993 L 10.065387000000001 284.0754799999999 L 10.212901 284.1295799999999 L 10.468944 284.24745999999993 L 10.696023 284.3520199999999 L 10.990299 284.4864099999999 L 11.702817 283.4697699999999 L 12.713664999999999 284.1764999999999 L 12.131445 285.00756999999993 L 12.128644999999999 285.01156999999995 L 11.99541 285.2017799999999 L 12.63687 285.9154499999999 L 12.71108 285.9754499999999 L 12.870151000000002 286.1749499999999 L 13.434949000000001 285.8489299999999 L 13.938928 285.5580199999999 L 14.555861 286.6238999999999 L 13.475502 287.2495199999999 L 13.509102 287.3341199999999 L 13.565872 287.53144999999995 L 13.814384 288.30672999999996 L 13.434954000000001 288.38942999999995 L 12.704119 288.54861999999997 L 12.646369 288.56111999999996 L 12.644269 288.56158999999997 L 12.556218999999999 288.24877999999995 L 12.532758999999999 288.16787999999997 L 12.532671999999998 288.16769 L 12.282305999999998 287.61129 L 11.948780999999999 286.96313 L 11.817718999999999 286.77588 L 11.555708999999998 286.47038999999995 L 11.196083999999999 286.11403999999993 L 10.911684999999999 285.8683699999999 L 10.473437999999998 285.6091399999999 L 10.469137999999997 285.6061399999999 L 10.206780999999998 285.43116999999995 L 10.116560999999997 285.38526999999993 L 10.064740999999998 285.36726999999996 L 9.901035699999998 285.31057 L 9.630336799999998 285.20175 L 9.501040799999998 285.14975 L 9.478448799999999 285.14074999999997 L 9.260435699999999 285.08124999999995 L 9.142638499999999 285.05344999999994 L 8.9861452 285.02964999999995 L 8.938065199999999 285.02264999999994 L 8.510195199999998 284.97724999999997 L 8.228403099999998 284.94395 L 8.204942099999998 284.9448 L 7.940093999999998 284.9548 L 7.5031640999999984 285.0048 L 7.4843370999999985 285.0068 L 7.468986099999999 285.0098 L 7.047340599999998 285.0827 L 6.7090885999999985 285.20232999999996 L 6.408414699999999 285.30864999999994 L 6.359870699999999 285.32514999999995 L 6.188547799999999 285.38394999999997 L 6.179567799999999 285.38994999999994 L 5.784447699999999 285.6280699999999 L 5.5565866999999995 285.7477999999999 L 5.160638199999999 286.13100999999995 L 4.808060599999999 286.41062999999997 L 4.619098499999999 286.60932999999994 L 4.571857499999999 286.6590299999999 L 4.537158499999999 286.70942999999994 L 4.2957133999999995 287.0602099999999 L 4.194165099999999 287.2122999999999 L 4.159292099999999 287.2772999999999 L 4.111878099999999 287.3657999999999 L 3.8717653999999992 287.87459999999993 L 3.872144799999999 287.87859999999995 L 3.811290799999999 288.05640999999997 L 3.786091799999999 288.16882 L 3.777691799999999 288.20612 L 3.601387099999999 288.89006 L 2.416753599999999 288.71917 L 2.533160499999999 288.16885 L 2.5760564999999986 287.96610000000004 L 2.335074799999999 287.87860000000006 L 2.0767725999999986 287.7848000000001 L 1.5713105999999986 287.6011700000001 L 1.4120077999999985 287.54327000000006 L 1.5713105999999986 287.10573000000005 L 1.8348842999999986 286.38180000000006 L 2.9333523999999986 286.7814900000001 L 3.027370399999999 286.8156900000001 L 3.036930399999999 286.81869000000006 L 3.1885866999999988 286.5676000000001 L 3.4235727999999988 286.20666000000006 L 3.5434843999999988 286.06615000000005 L 3.7781228999999987 285.74472000000003" stroke-linecap="round" />
</g>
		<g transform="matrix(2.9 0 0 2.9 -21.11 18.74)" id="path1429"  >
<path style="stroke: rgb(0,0,0); stroke-width: 0.13048988; stroke-dasharray: none; stroke-linecap: butt; stroke-dashoffset: 0; stroke-linejoin: miter; stroke-miterlimit: 4; fill: rgb(0,0,0); fill-rule: nonzero; opacity: 1;" vector-effect="non-scaling-stroke"  transform=" translate(-189.75, -305.67)" d="M 191.41146 306.3892 Q 191.41146 306.96212 190.92448000000002 307.32149000000004 Q 190.44010000000003 307.67826 189.60677 307.67826 Q 189.125 307.67826 188.76563000000002 307.59496 Q 188.40885000000003 307.50906000000003 188.09635000000003 307.37881 L 188.09635000000003 306.44912999999997 L 188.20573000000002 306.44912999999997 Q 188.51563000000002 306.69651999999996 188.89844000000002 306.82932999999997 Q 189.28385000000003 306.96214999999995 189.63802 306.96214999999995 Q 189.72912000000002 306.96214999999995 189.8776 306.94654999999995 Q 190.02604 306.93094999999994 190.11979 306.89444999999995 Q 190.23438 306.84754999999996 190.30729 306.77725999999996 Q 190.38279 306.70696 190.38279 306.56892999999997 Q 190.38279 306.44131999999996 190.27342 306.35017999999997 Q 190.16664999999998 306.25647999999995 189.95830999999998 306.20694999999995 Q 189.73955999999998 306.15484999999995 189.49477 306.11054999999993 Q 189.25258 306.06364999999994 189.03904 305.9933699999999 Q 188.54946 305.8345099999999 188.33331 305.5636799999999 Q 188.11977000000002 305.2902399999999 188.11977000000002 304.88659999999993 Q 188.11977000000002 304.3449299999999 188.60415 304.00377999999995 Q 189.09113 303.66002999999995 189.85415 303.66002999999995 Q 190.23696 303.66002999999995 190.60936 303.7355299999999 Q 190.98436 303.80842999999993 191.25779 303.92042999999995 L 191.25779 304.81365999999997 L 191.15102 304.81365999999997 Q 190.91664999999998 304.62615999999997 190.57549999999998 304.50115999999997 Q 190.23695999999998 304.37354999999997 189.88278999999997 304.37354999999997 Q 189.75778999999997 304.37354999999997 189.63278999999997 304.39174999999994 Q 189.51039999999998 304.40734999999995 189.39580999999998 304.45424999999994 Q 189.29424999999998 304.49334999999996 189.22133 304.57404999999994 Q 189.14843 304.65214999999995 189.14843 304.75372999999996 Q 189.14843 304.90738 189.26561999999998 304.99071 Q 189.38279999999997 305.07140999999996 189.70832 305.13915 Q 189.92186999999998 305.18345 190.11718 305.22504999999995 Q 190.31509 305.26674999999994 190.54165999999998 305.33962999999994 Q 190.98696999999999 305.48545999999993 191.19790999999998 305.73806999999994 Q 191.41144999999997 305.98806999999994 191.41144999999997 306.38910999999996 z" stroke-linecap="round" />
</g>
		<g transform="matrix(2.9 0 0 2.9 -9.28 18.74)" id="path1431"  >
<path style="stroke: rgb(0,0,0); stroke-width: 0.13048988; stroke-dasharray: none; stroke-linecap: butt; stroke-dashoffset: 0; stroke-linejoin: miter; stroke-miterlimit: 4; fill: rgb(0,0,0); fill-rule: nonzero; opacity: 1;" vector-effect="non-scaling-stroke"  transform=" translate(-193.84, -305.67)" d="M 195.57552 307.60795 L 194.57552 307.60795 L 194.57552 305.89962 L 193.09896 305.89962 L 193.09896 307.60795 L 192.09896 307.60795 L 192.09896 303.73035000000004 L 193.09896 303.73035000000004 L 193.09896 305.14962 L 194.57552 305.14962 L 194.57552 303.73035000000004 L 195.57552 303.73035000000004 z" stroke-linecap="round" />
</g>
		<g transform="matrix(2.9 0 0 2.9 1.41 18.74)" id="path1433"  >
<path style="stroke: rgb(0,0,0); stroke-width: 0.13048988; stroke-dasharray: none; stroke-linecap: butt; stroke-dashoffset: 0; stroke-linejoin: miter; stroke-miterlimit: 4; fill: rgb(0,0,0); fill-rule: nonzero; opacity: 1;" vector-effect="non-scaling-stroke"  transform=" translate(-197.53, -305.67)" d="M 198.66406 307.60795 L 196.39323000000002 307.60795 L 196.39323000000002 306.92045 L 197.02865000000003 306.92045 L 197.02865000000003 304.41785000000004 L 196.39323000000002 304.41785000000004 L 196.39323000000002 303.73035000000004 L 198.66406 303.73035000000004 L 198.66406 304.41785000000004 L 198.02865 304.41785000000004 L 198.02865 306.92045 L 198.66406 306.92045 z" stroke-linecap="round" />
</g>
		<g transform="matrix(2.9 0 0 2.9 11.1 18.74)" id="path1435"  >
<path style="stroke: rgb(0,0,0); stroke-width: 0.13048988; stroke-dasharray: none; stroke-linecap: butt; stroke-dashoffset: 0; stroke-linejoin: miter; stroke-miterlimit: 4; fill: rgb(0,0,0); fill-rule: nonzero; opacity: 1;" vector-effect="non-scaling-stroke"  transform=" translate(-200.87, -305.67)" d="M 202.26302 304.48035 L 200.47917 304.48035 L 200.47917 305.20169999999996 L 202.13281 305.20169999999996 L 202.13281 305.95169999999996 L 200.47917 305.95169999999996 L 200.47917 307.60794999999996 L 199.48438000000002 307.60794999999996 L 199.48438000000002 303.73035 L 202.26302 303.73035 z" stroke-linecap="round" />
</g>
		<g transform="matrix(2.9 0 0 2.9 20.95 18.74)" id="path1437"  >
<path style="stroke: rgb(0,0,0); stroke-width: 0.13048988; stroke-dasharray: none; stroke-linecap: butt; stroke-dashoffset: 0; stroke-linejoin: miter; stroke-miterlimit: 4; fill: rgb(0,0,0); fill-rule: nonzero; opacity: 1;" vector-effect="non-scaling-stroke"  transform=" translate(-204.28, -305.67)" d="M 205.98698 304.48035 L 204.77604 304.48035 L 204.77604 307.60794999999996 L 203.77604 307.60794999999996 L 203.77604 304.48035 L 202.5651 304.48035 L 202.5651 303.73035 L 205.98698 303.73035 z" stroke-linecap="round" />
</g>
		<g transform="matrix(1 0 0 1 2.35 -2.03)" id="path1462"  >
<path style="stroke: rgb(0,0,0); stroke-width: 0.37795275; stroke-dasharray: none; stroke-linecap: butt; stroke-dashoffset: 0; stroke-linejoin: round; stroke-miterlimit: 4; fill: rgb(0,0,0); fill-rule: nonzero; opacity: 1;" vector-effect="non-scaling-stroke"  transform=" translate(-32.59, -28.23)" d="M 39.384766 20.689453 L 30.863281 27.058594 C 30.638583 27.021453 30.411334 27.001862 30.183594 27 C 27.760372 26.999546 25.795547 28.963497 25.794922 31.386719 C 25.794468 33.810704 27.759609 35.775845 30.183594 35.775391 C 32.607579 35.775845 34.57272 33.810704 34.572266 31.386719 C 34.501186 30.941800999999998 34.486526 30.489687 34.445312 30.041016 z" stroke-linecap="round" />
</g>
</g>
</g>
</svg>