<?xml version="1.0" encoding="UTF-8" standalone="no"?>
<!-- Created with Inkscape (http://www.inkscape.org/) -->

<svg
   xmlns:dc="http://purl.org/dc/elements/1.1/"
   xmlns:cc="http://creativecommons.org/ns#"
   xmlns:rdf="http://www.w3.org/1999/02/22-rdf-syntax-ns#"
   xmlns:svg="http://www.w3.org/2000/svg"
   xmlns="http://www.w3.org/2000/svg"
   xmlns:sodipodi="http://sodipodi.sourceforge.net/DTD/sodipodi-0.dtd"
   xmlns:inkscape="http://www.inkscape.org/namespaces/inkscape"
   width="16mm"
   height="16mm"
   viewBox="0 0 16 16"
   version="1.1"
   id="svg847"
   inkscape:version="0.92.2 (5c3e80d, 2017-08-06)"
   sodipodi:docname="DiceSlide.svg">
  <defs
     id="defs841" />
  <sodipodi:namedview
     id="base"
     pagecolor="#ffffff"
     bordercolor="#666666"
     borderopacity="1.0"
     inkscape:pageopacity="0.0"
     inkscape:pageshadow="2"
     inkscape:zoom="5.6"
     inkscape:cx="56.916208"
     inkscape:cy="53.366702"
     inkscape:document-units="mm"
     inkscape:current-layer="layer1"
     showgrid="false"
     inkscape:window-width="1920"
     inkscape:window-height="1017"
     inkscape:window-x="-8"
     inkscape:window-y="-8"
     inkscape:window-maximized="1" />
  <metadata
     id="metadata844">
    <rdf:RDF>
      <cc:Work
         rdf:about="">
        <dc:format>image/svg+xml</dc:format>
        <dc:type
           rdf:resource="http://purl.org/dc/dcmitype/StillImage" />
        <dc:title></dc:title>
      </cc:Work>
    </rdf:RDF>
  </metadata>
  <g
     inkscape:label="Layer 1"
     inkscape:groupmode="layer"
     id="layer1"
     transform="translate(0,-281)">
    <g
       id="g1423"
       transform="matrix(0,-0.42521886,0.42521886,0,-88.074188,370.01374)">
      <path
         style="fill:none;stroke:#0000ff;stroke-width:0.26458332;stroke-miterlimit:4;stroke-dasharray:none;stroke-opacity:1"
         id="path839"
         d="m 187.88235,216.46339 -0.0534,-0.0462 -0.0427,-0.0351 -0.16508,-0.13584 -0.0291,-0.0295 -0.0898,-0.0899 -0.1564,-0.15659 -0.0976,-0.10187 -7.1e-4,-0.001 -0.15609,-0.26757 -0.0476,-0.0824 -0.2272,-0.4584 -0.0166,-0.0344 -0.036,-0.0748 -0.0848,-0.2384 -0.014,-0.0402 -0.024,-0.113 -0.0784,-0.37944 -0.002,-0.0118 -0.0224,-0.2104 -0.004,-0.034 -0.009,-0.138 -0.0244,-0.3616 -0.005,-0.0917 -0.002,-0.0467 0.0197,-0.208 0.0108,-0.1 0.0311,-0.28831 0.007,-0.0632 0.0147,-0.1057 0.0234,-0.1836 0.036,-0.1868 0.0489,-0.24956 0.001,-0.008 0.0182,-0.0642 0.0541,-0.1976 0.0475,-0.13867 0.0345,-0.0919 0.0489,-0.11 0.013,-0.0292 0.0944,-0.1672 0.0468,-0.0856 0.0582,-0.0786 0.0522,-0.0705 0.0775,-0.0961 0.19014,-0.1856 0.048,-0.0452 0.0208,-0.0166 0.0108,-0.008 0.2188,-0.16482 0.0284,-0.0212 0.25272,-0.15156 0.23476,-0.13953 0.0597,-0.0355 0.0639,-0.0331 0.0644,-0.0322 0.13066,-0.0635 0.22038,-0.1136 0.15616,-0.0768 0.2255,1.254 0.18414,1.024 9e-5,5.1e-4 2.6e-4,0.001 -0.16196,0.0851 -0.0406,0.0223 -0.0447,0.0245 -0.0977,0.0609 -7.7e-4,4.8e-4 -0.121,0.0726 -0.0123,0.009 -0.015,0.011 -0.10225,0.0888 -0.0429,0.0365 -0.0106,0.0122 -0.0101,0.0164 -0.11876,0.15863 -0.0373,0.0828 -0.0173,0.0385 -0.009,0.0206 -0.003,0.0104 -0.0403,0.13536 -4.5e-4,0.003 -0.0217,0.13302 -0.0295,0.18047 -0.009,0.05 -1.6e-4,9.5e-4 -7.5e-4,0.01 -7.9e-4,0.0105 -0.0195,0.26004 -9.5e-4,0.0127 -0.001,0.13302 -5e-5,0.005 0.0114,0.15353 -8.5e-4,0.0196 0.006,0.0445 10e-4,0.01 0.002,0.002 0.0137,0.0715 0.0136,0.0366 0.001,0.003 0.007,0.0206 0.01,0.026 9e-4,0.002 0.0511,0.0835 0.006,0.007 3.5e-4,4.2e-4 0.0109,0.0134 0.0194,0.0178 0.0112,0.0102 0.0268,0.0267 0.0708,0.0433 0.004,0.003 0.001,8.8e-4 0.0219,0.0137 0.027,0.0188 0.004,0.003 0.0111,0.006 0.0181,0.009 0.14441,0.0726 0.0248,-0.003 0.005,-6.4e-4 0.0203,-0.003 0.0159,-0.002 0.001,-2e-4 0.0602,-0.0117 0.0435,-0.0115 7.1e-4,-1.9e-4 0.022,-0.007 0.007,-0.002 0.0643,-0.0351 0.0246,-0.0214 0.0131,-0.0114 0.0171,-0.016 0.0203,-0.0197 0.002,-0.002 0.004,-0.005 0.002,-0.002 0.002,-0.002 0.0323,-0.0358 0.002,-0.002 0.0175,-0.0196 6e-5,-1.2e-4 0.058,-0.12745 0.006,-0.0144 0.009,-0.0217 0.0616,-0.13534 0.0303,-0.1036 0.0337,-0.12174 0.0137,-0.0495 0.0235,-0.1312 0.0451,-0.21898 0.0498,-0.24195 0.0654,-0.31764 0.001,-0.005 0.009,-0.0445 0.0397,-0.1498 0.0206,-0.0826 0.0175,-0.0702 0.0521,-0.1628 0.0413,-0.1384 0.007,-0.0175 0.0153,-0.0391 0.0189,-0.0419 0.15693,-0.37106 0.0405,-0.0765 0.1408,-0.2464 0.18705,-0.28427 0.0542,-0.0824 0.10494,-0.16199 0.005,-0.008 0.1585,-0.11743 0.10789,-0.079 0.0392,-0.0295 0.0238,-0.0163 0.15467,-0.0945 0.009,-0.006 0.0212,-0.0127 0.0243,-0.0141 0.006,-0.004 0.0361,-0.0133 0.008,-0.003 0.15697,-0.0626 0.04,-0.016 0.01,-0.004 0.0101,-0.005 0.0222,-0.01 0.0132,-0.004 0.004,-10e-4 0.0336,-0.011 0.14229,-0.026 0.17386,-0.0318 0.014,-0.003 0.001,-2.5e-4 0.002,-5.4e-4 0.002,-4.6e-4 0.0109,-0.002 0.0356,-0.004 0.1281,-0.0134 0.11525,-0.0109 0.0261,-0.002 0.0725,0.007 0.23406,0.0289 0.14712,0.0211 0.0251,0.004 0.0362,0.007 0.0987,0.0183 0.0177,0.003 0.0436,0.008 0.0152,0.005 0.0393,0.0124 0.0515,0.0163 0.0929,0.0249 0.0478,0.0128 0.0342,0.0126 0.007,0.003 5.6e-4,2.2e-4 0.004,0.002 0.007,0.004 0.002,0.001 0.002,0.001 0.002,0.001 0.002,0.001 0.004,0.002 5.3e-4,2.9e-4 0.001,7.6e-4 0.25748,0.13972 0.0692,0.0375 0.13376,0.10047 0.0888,0.0707 0.002,0.002 0.1112,0.10194 0.22083,0.1994 0.01,0.009 0.005,0.008 0.0424,0.0668 0.15913,0.25153 0.0613,0.1072 0.143,0.2574 0.0243,0.0515 0.0961,0.21707 0.0277,0.0797 0.0601,0.198 0.0337,0.16745 0.03,0.1518 0.0167,0.11655 0.008,0.0696 0.0242,0.2968 0.001,0.0176 0.006,0.1126 0.0128,0.3008 -0.0336,0.3136 -0.033,0.3348 -0.0115,0.0804 -0.0197,0.138 -0.0148,0.0884 -0.045,0.2202 -0.026,0.1196 -0.0312,0.1024 -0.06,0.1896 -0.0114,0.03 -0.0246,0.0648 -0.0198,0.0462 -0.1752,0.3152 -0.0312,0.0518 -0.0234,0.0296 -0.0824,0.104 -0.0952,0.1064 -0.0646,0.0632 -0.0976,0.0936 -0.1392,0.1184 -0.0536,0.0403 -0.0208,0.0157 -0.1832,0.136 -0.0912,0.0616 -0.0396,0.0268 -0.0849,0.0521 -0.45025,0.28483 -0.48814,-1.611 -0.0281,-0.0928 -0.0451,-0.1487 -0.032,-0.10572 -0.0148,-0.0489 -7.9e-4,-0.003 -0.005,-0.0164 -0.001,-0.004 -2.6e-4,-8.5e-4 -7.6e-4,-0.002 0.0666,-0.0402 0.10403,-0.0675 0.048,-0.0288 0.024,-0.0144 1.7e-4,-1e-4 0.0127,-0.009 0.0242,-0.0163 0.006,-0.005 0.13566,-0.10072 0.004,-0.003 0.006,-0.005 0.002,-0.002 0.0152,-0.0147 0.009,-0.0164 0.004,-0.005 0.0849,-0.10596 0.0194,-0.0188 0.0235,-0.0228 0.008,-0.01 0.0218,-0.0259 0.0429,-0.0823 0.004,-0.009 0.007,-0.015 0.009,-0.024 0.0207,-0.0565 0.0299,-0.0972 0.002,-0.0117 0.0422,-0.26964 0.007,-0.038 0.003,-0.0168 0.006,-0.0422 2e-4,-0.005 0.002,-0.0488 0.002,-0.0565 0.002,-0.0369 0.004,-0.0461 1.6e-4,-0.005 1.1e-4,-0.003 -0.001,-0.0457 -7.4e-4,-0.0261 -4.3e-4,-0.003 -0.0128,-0.10527 -0.009,-0.0705 -0.0101,-0.0804 -0.0228,-0.0614 -5.8e-4,-0.002 -0.005,-0.0142 -0.007,-0.0204 -5.5e-4,-5.9e-4 -0.0311,-0.0325 -0.001,-0.002 -0.0462,-0.0708 -0.0108,-0.0102 -0.13183,-0.0771 -0.0263,-0.0182 -0.0214,-0.01 -10e-4,-4.8e-4 -8.7e-4,-4e-4 -0.084,-0.0341 -0.0722,-0.0264 -0.0373,0.005 -0.021,0.004 -0.0407,0.009 -0.0214,0.005 -0.002,-0.004 -3e-5,-4e-5 -0.001,2.3e-4 -0.0172,0.006 -0.0467,0.0169 -3.7e-4,2.4e-4 -0.003,0.002 -0.0215,0.0137 -0.0431,0.0375 -0.0364,0.0289 -0.007,0.006 -0.003,0.004 -0.0441,0.0489 -0.009,0.019 -0.023,0.0486 -0.042,0.0964 -0.034,0.0737 -0.004,0.0144 -0.008,0.0259 -0.0451,0.14904 -0.002,0.006 -0.015,0.0443 -0.007,0.0373 -0.005,0.0244 -0.004,0.022 -0.015,0.0621 -0.0283,0.11681 -0.0739,0.33725 -0.0507,0.2252 -0.049,0.21759 -0.0126,0.0559 -0.009,0.0352 -0.0242,0.0939 -0.0384,0.13973 -0.0228,0.0884 -0.001,0.005 -0.11917,0.38787 -0.0796,0.25893 -0.0168,0.0549 -0.002,0.005 -0.007,0.0206 -0.002,0.006 -0.0109,0.0339 -0.0117,0.036 -0.0813,0.144 -0.0953,0.198 -0.008,0.0153 -0.0307,0.0517 -0.10467,0.13934 -0.0333,0.0493 -0.009,0.0103 -0.0835,0.091 -0.0171,0.0177 -0.0109,0.0113 -0.031,0.027 -0.29333,0.253 -0.0335,0.0181 -0.1567,0.0846 -0.14555,0.0828 -0.0962,0.0468 -0.004,0.002 -0.0722,0.0263 -0.058,0.0181 -0.13167,0.0456 -0.155,0.03 -0.07,0.0133 -0.0144,0.002 -0.0147,0.002 -0.0117,0.002 -0.0349,0.003 -0.06,0.005 -0.21468,0.0177 -0.0542,0.004 -0.006,5e-4 -0.006,-6.6e-4 -0.16821,-0.0196 -0.10061,-0.0148 -0.15352,-0.0225 -0.0408,-0.004 -0.0186,-0.002 -0.1428,-0.0264 -0.046,-0.01 -0.0369,-0.009 -0.0635,-0.0159 -0.0372,-0.0132 -0.2312,-0.0832 -0.0482,-0.0232 -0.0636,-0.033 -0.017,-0.009 -0.0178,-0.0128 -0.012,-0.009 -0.0528,-0.0316 -0.0464,-0.0288 -0.0155,-0.0105 -0.0147,-0.01"
         inkscape:connector-curvature="0" />
      <path
         style="fill:none;stroke:#0000ff;stroke-width:0.26458332;stroke-miterlimit:4;stroke-dasharray:none;stroke-opacity:1"
         id="path837"
         d="m 188.84193,232.03843 0.0321,0.0342 0.003,0.002 0.014,0.0124 0.056,0.0506 0.0231,0.0195 0.0279,0.0236 0.0517,0.0434 0.20753,0.1078 0.12293,0.0611 0.0393,0.0162 0.0501,0.0229 0.0331,0.0152 0.0406,0.0186 0.007,0.002 0.0885,0.0279 0.13527,0.0483 0.007,0.003 0.11406,0.0271 0.21847,0.0284 0.0958,0.0164 0.1008,0.008 0.0501,0.003 0.24687,0.006 0.1441,-7.4e-4 0.002,-1e-5 0.0652,-3.2e-4 0.10067,-0.008 0.0211,-0.001 0.0639,-0.003 0.0425,-0.002 0.0465,-0.005 0.12433,-0.028 0.268,-0.0447 0.076,-0.0167 0.037,-0.0127 0.054,-0.0186 0.0263,-0.0107 0.0836,-0.0311 0.046,-0.0196 0.0901,-0.0383 3.2e-4,-1.3e-4 0.0382,-0.0162 0.22574,-0.10458 0.004,-0.002 0.12609,-0.0957 0.009,-0.007 0.22644,-0.202 10e-4,-0.001 5.3e-4,-3.9e-4 1.9e-4,-1.4e-4 1e-4,-1.3e-4 0.001,-10e-4 0.007,-0.008 0.0785,-0.1038 0.006,-0.01 0.0363,-0.0628 0.0109,-0.0198 0.002,-0.003 0.008,-0.0258 0.006,-0.0171 0.0531,-0.15357 6.4e-4,-0.002 0.0294,-0.14987 0.005,-0.0229 0.002,-0.01 7.1e-4,-0.005 2.4e-4,-0.002 0.0235,-0.1731 v -0.63933 h -1.20103 -3.141 v 0.54575 0.0875 0.006 l 0.0109,0.0683 0.008,0.0463 0.004,0.0255 0.002,0.009 0.001,0.008 0.007,0.0424 0.004,0.0121 0.0323,0.11361 0.0242,0.0852 0.01,0.0342 0.007,0.0328 0.005,0.0121 0.003,0.008 0.008,0.0181 0.003,0.007 0.007,0.0117 0.0438,0.0684 0.0259,0.0462 0.007,0.009 0.0711,0.089 0.002,0.002 0.0595,0.0557 0.039,0.0365"
         inkscape:connector-curvature="0" />
      <path
         style="fill:none;stroke:#0000ff;stroke-width:0.26458332;stroke-miterlimit:4;stroke-dasharray:none;stroke-opacity:1"
         id="path835"
         d="m 190.21046,235.18312 -0.19555,-0.0196 -0.0145,-0.001 -0.0321,-0.005 -0.002,-3.5e-4 -0.0127,-0.003 -0.40307,-0.0709 -0.21013,-0.0369 -0.11573,-0.0373 -0.18107,-0.0574 -0.013,-0.005 -0.071,-0.0284 -0.0288,-0.0141 -0.0168,-0.009 -0.33049,-0.16598 -3.5e-4,-2e-4 -0.002,-0.001 -0.0825,-0.0531 -0.1964,-0.12546 -0.0386,-0.0257 -4.3e-4,-3.2e-4 -0.0693,-0.051 -0.45336,-0.33127 -0.004,-0.006 -0.23352,-0.29374 -0.0422,-0.053 -0.12866,-0.16183 -0.0103,-0.0116 -0.0126,-0.0172 -0.01,-0.0137 -0.0254,-0.0347 -0.0544,-0.0833 -0.003,-0.004 -0.003,-0.005 -0.15335,-0.23101 -0.0667,-0.124 -0.0383,-0.0729 -1.6e-4,-3.4e-4 -0.008,-0.0168 -0.0322,-0.0876 -5.1e-4,-0.001 -0.10533,-0.27967 -0.007,-0.027 -0.0461,-0.17235 -0.009,-0.0392 -0.006,-0.0245 -0.0744,-0.51211 -0.008,-0.0508 -10e-4,-0.01 -0.002,-0.0186 -0.0272,-0.30913 -0.006,-0.0711 -0.005,-0.06 v -1.988 -1.258 h 0.885 7.113 v 1.258 1.67173 0.11983 0.0444 l -0.0145,0.212 -0.0275,0.40107 -5.3e-4,0.008 -7.7e-4,0.0102 -2.4e-4,0.002 -0.001,0.0111 -0.0369,0.30847 -0.003,0.0161 -0.0267,0.16081 -0.003,0.0205 -0.0116,0.0479 -0.0392,0.16602 -0.0134,0.0568 -0.006,0.0173 -0.0495,0.15529 -0.0119,0.0367 -1.4e-4,3.4e-4 -0.001,0.004 -0.0562,0.13781 -0.0672,0.13906 -0.0145,0.0285 -0.0512,0.0874 -0.0698,0.1192 -0.0795,0.11365 -0.10818,0.15467 -0.0155,0.021 -0.1078,0.13766 -0.15167,0.17836 -0.0233,0.0274 -0.20267,0.23787 -0.43,0.297 -0.14886,0.0924 -0.2464,0.14773 -0.1638,0.084 -0.11654,0.0565 -0.17233,0.0675 -0.0688,0.0261 -0.0709,0.0195 -0.3102,0.0836 -0.0363,0.008 -0.0579,0.0105 -0.0514,0.009 -0.21386,0.0307 -0.15774,0.0215 -0.52,0.048 -0.44489,-0.0323"
         inkscape:connector-curvature="0" />
      <path
         style="fill:none;stroke:#0000ff;stroke-width:0.26458332;stroke-miterlimit:4;stroke-dasharray:none;stroke-opacity:1"
         id="path833"
         d="m 194.61535,226.70738 h -7.113 -0.885 v -1.443 -1.012 h 0.885 7.113 v 1.012 1.443"
         inkscape:connector-curvature="0" />
      <path
         style="fill:none;stroke:#0000ff;stroke-width:0.26458332;stroke-miterlimit:4;stroke-dasharray:none;stroke-opacity:1"
         id="path831"
         d="m 194.61535,236.25238 v 1.3 1.109 2.918 0.069 0.622 h -1.845 v -0.622 -0.069 -2.918 h -1.16 v 2.918 h -1.776 v -2.918 h -1.306 v 2.918 0.069 0.622 h -1.026 -0.885 v -0.622 -4.096 -1.3 h 0.885 4.096 2.048 0.969"
         inkscape:connector-curvature="0" />
      <path
         style="fill:none;stroke:#0000ff;stroke-width:0.26458332;stroke-miterlimit:4;stroke-dasharray:none;stroke-opacity:1"
         id="path829"
         d="m 178.41855,219.33658 -0.0355,-0.2162 -0.0503,-0.30666 -0.006,-0.0325 -0.006,-0.0328 -0.007,-0.0318 -2.6e-4,-0.001 -0.007,-0.0336 -0.0572,-0.25793 -0.0235,-0.1058 -0.008,-0.0336 -0.008,-0.0341 -0.009,-0.0344 -0.009,-0.0347 -0.198,-0.71207 -0.009,-0.0349 -0.01,-0.0352 -0.0104,-0.0355 -0.0107,-0.036 -0.0112,-0.036 -0.0117,-0.0363 -0.0633,-0.18287 -0.14501,-0.4192 -0.0245,-0.0733 -0.0261,-0.0741 -0.028,-0.0749 -0.0296,-0.076 -0.3432,-0.84333 -0.0645,-0.1552 -0.0909,-0.19947 -0.308,-0.66513 -0.12373,-0.248 -0.48693,-0.935 -0.0917,-0.1712 -0.495,-0.8624 -0.1784,-0.31067 0.0382,-0.0125 0.0606,-0.0198 0.0797,-0.026 0.0203,-0.007 0.12198,-0.0398 0.0285,-0.009 0.0699,-0.0228 0.0649,-0.0212 0.0891,-0.0291 0.0778,-0.0254 3.22792,-1.05265 1.058,-0.34502 0.17493,0.33813 0.50453,0.97607 0.38207,0.79786 0.17467,0.36694 0.0617,0.143 0.35855,0.8316 0.1128,0.26213 0.0845,0.21147 0.2589,0.66517 0.0322,0.0828 0.176,0.51333 0.1128,0.32293 0.18554,0.60354 0.0435,0.14533 0.1122,0.42167 0.01,0.036 0.0531,0.19946 7e-5,3.2e-4 0.10333,0.45583 0.0355,0.16346 0.0224,0.124 0.006,0.0349 0.005,0.0344 0.005,0.0344 0.005,0.0339 0.0189,0.11823 0.13598,0.84911 0.013,0.0813 0.0141,0.13253 0.003,0.0398 0.005,0.0725 0.003,0.0627 0.002,0.0768 0.0499,1.08973 -0.003,0.16347 -0.0212,0.3292 -0.0265,0.41146 -0.003,0.0576 -0.002,0.0162 -0.0145,0.15103 -0.0763,0.51333 -0.02,0.1336 -0.0256,0.12907 -0.0339,0.15083 -0.0969,0.43172 -0.0195,0.087 -0.0229,0.0936 -0.1188,0.3982 -0.0389,0.13973 -0.0467,0.14027 -0.13127,0.38573 -0.0637,0.16933 -0.21908,0.55539 -1.9e-4,4.7e-4 -0.0565,0.13144 -0.0507,0.11786 -0.1034,0.24054 -0.42607,0.93426 -0.144,0.3144 -0.3454,0.7744 -0.11013,0.24934 -0.0339,0.084 -0.24933,0.6534 -0.0317,0.0845 -0.0565,0.172 -0.1491,0.47126 -0.0152,0.0479 -0.0323,0.12134 -0.143,0.6798 -0.0104,0.0451 -0.0216,0.11413 -0.0101,0.0699 -0.0499,0.45173 -0.0141,0.15574 -0.0106,0.3624 -0.001,0.0395 -0.002,0.12426 0.01,0.34467 0.005,0.11547 0.0359,0.35786 0.0138,0.13493 0.001,0.0115 0.0184,0.11706 0.0645,0.42387 0.0219,0.10667 0.0594,0.27226 0.01,0.0438 0.0939,0.3542 0.0933,0.3168 0.0917,0.29334 0.2266,0.6094 0.0949,0.2408 0.28086,0.62186 0.0773,0.168 0.0517,0.10347 0.0368,0.0701 0.67687,1.25474 0.0106,0.0195 0.0283,0.0517 0.0405,0.0725 0.0427,0.0733 0.0445,0.0744 0.0467,0.0755 0.4466,0.70986 0.0485,0.0768 0.0504,0.0779 -10e-4,2.7e-4 -3.7e-4,1e-4 -0.008,0.002 -0.0159,0.005 -0.0146,0.004 -0.0217,0.006 -0.0122,0.004 -3.91849,1.16722 -0.70795,0.21087 -5e-5,2e-5 -0.1848,-0.2888 -0.506,-0.79054 -0.28967,-0.48839 -0.16106,-0.2752 -0.39967,-0.73114 -0.0204,-0.0379 -0.0409,-0.076 -0.0936,-0.18453 -0.40993,-0.8734 -0.0339,-0.0723 -0.0323,-0.0712 -0.0859,-0.20774 -0.2442,-0.5984 -0.0575,-0.16409 -0.0127,-0.0362 -0.0104,-0.0325 -0.01,-0.0323 -0.22587,-0.69813 -0.0533,-0.20534 -0.15033,-0.6292 -0.0344,-0.1872 -0.004,-0.0276 -0.0621,-0.38202 -0.01,-0.0597 -0.0165,-0.13654 -0.0543,-0.79346 -0.005,-0.0557 -0.004,-0.0824 -5.4e-4,-0.13334 0.0152,-0.4048 2.2e-4,-0.006 0.006,-0.1096 0.006,-0.0696 0.0235,-0.29626 0.0104,-0.0716 0.011,-0.0758 0.099,-0.60207 0.0245,-0.11867 0.0152,-0.0626 0.002,-0.008 0.0125,-0.0459 0.01,-0.0341 0.15181,-0.54833 0.0675,-0.24367 0.0139,-0.0453 0.0144,-0.0448 0.0152,-0.0445 0.0157,-0.0443 0.13127,-0.3674 0.0165,-0.0437 0.0168,-0.0437 0.1958,-0.4796 0.0173,-0.0432 0.013,-0.0315 0.005,-0.0117 0.002,-0.004 0.0349,-0.0816 0.23482,-0.5192 0.005,-0.011 0.0381,-0.0851 0.0389,-0.0845 0.0795,-0.16853 0.6556,-1.42047 0.0792,-0.16933 0.0389,-0.0853 0.0105,-0.0237 0.003,-0.008 0.0241,-0.0545 0.0184,-0.0437 0.2024,-0.49867 0.0181,-0.0437 0.0179,-0.044 0.0171,-0.0445 0.001,-0.003 0.0161,-0.0421 0.0163,-0.0451 0.0157,-0.0456 0.13346,-0.36887 0.013,-0.0394 0.002,-0.007 0.0144,-0.0464 0.0139,-0.0472 0.0131,-0.0475 0.18252,-0.6194 8e-5,-2.6e-4 0.009,-0.036 0.0117,-0.0485 0.11807,-0.56467 0.008,-0.0368 0.0128,-0.0621 0.009,-0.0501 0.008,-0.0512 0.006,-0.0418 10e-4,-0.01 0.005,-0.0392 0.0704,-0.55953 0.007,-0.0664 0.004,-0.0487 3.9e-4,-0.006 0.004,-0.0963 0.0152,-0.331 0.008,-0.18013 7.9e-4,-0.0845 -0.0191,-0.57714 -2.7e-4,-0.0288 -0.002,-0.0725 -0.003,-0.0592 -0.006,-0.0749 -0.0543,-0.50306 -0.009,-0.0768 -0.008,-0.062 -9e-5,-6.6e-4 -0.0128,-0.0795 -0.006,-0.0325"
         inkscape:connector-curvature="0" />
      <path
         style="fill:none;stroke:#0000ff;stroke-width:0.26458332;stroke-miterlimit:4;stroke-dasharray:none;stroke-opacity:1"
         id="path827"
         d="m 194.61535,217.79038 v 1.33 1.125 h -0.969 -2.048 -3.018 v 0.923 2.229 h -1.078 -0.885 v -2.229 -2.048 -1.33 h 0.885 4.096 2.048 0.969"
         inkscape:connector-curvature="0" />
      <path
         style="fill:none;stroke:#0000ff;stroke-width:0.26458332;stroke-miterlimit:4;stroke-dasharray:none;stroke-opacity:1"
         id="path825"
         d="m 200.53135,221.19965 0.002,-0.0313 10e-4,-0.0234 0.002,-0.0557 5.3e-4,-0.0704 -0.0161,-0.69226 -2.6e-4,-0.0288 -0.001,-0.0405 -0.001,-0.032 -0.003,-0.0592 -0.006,-0.0749 -0.077,-0.67394 -0.003,-0.0307 -0.009,-0.0773 -0.009,-0.0629 -0.0102,-0.0603 -0.003,-0.0203 -0.009,-0.0453 -0.007,-0.0365 -0.0147,-0.0669 -0.0299,-0.12 -0.24127,-1.09047 -0.0296,-0.1056 -0.0166,-0.0547 -0.005,-0.0173 -0.0117,-0.0363 -0.0245,-0.0733 -0.0261,-0.0741 -0.12544,-0.37274 -0.0644,-0.19124 -0.1952,-0.58002 -0.028,-0.0749 -0.0296,-0.076 -0.0184,-0.0451 -0.013,-0.032 -0.0331,-0.0781 -0.3124,-0.7458 -0.0533,-0.11894 -0.18187,-0.3894 -0.16133,-0.32853 -0.36227,-0.71867 -0.104,-0.19306 -0.28853,-0.5242 -0.1918,-0.34847 -0.11253,-0.1984 -0.22,-0.37473 -0.0536,-0.0904 4.5e-4,-1.5e-4 0.008,-0.002 0.01,-0.003 4.91914,-1.60426 0.17493,0.33814 0.29627,0.56393 0.0993,0.20075 0.25339,0.51205 0.17467,0.36693 0.29203,0.6402 0.22737,0.49844 0.0262,0.0574 0.13146,0.30559 0.3894,0.9922 0.0336,0.0845 0.0133,0.035 0.0285,0.0748 0.006,0.015 0.0717,0.20267 0.24494,0.7128 0.0501,0.15707 0.18626,0.64606 0.0333,0.1152 0.001,0.004 0.0475,0.18338 0.003,0.0117 0.15706,0.6556 0.0168,0.0733 0.032,0.16133 0.13713,0.8162 0.012,0.0704 0.001,0.007 0.0138,0.0954 0.0168,0.1536 0.002,0.0146 0.0608,0.57573 0.006,0.0765 0.004,0.0632 7.9e-4,0.0245 0.002,0.0531 2.7e-4,0.0304 0.0183,0.73187 -8e-4,0.1048 -0.002,0.0587 -0.0212,0.3292 -0.0265,0.41147 -0.002,0.0383 -0.001,0.0193 -0.003,0.0456 -7.9e-4,0.0109 -0.005,0.0557 -0.006,0.0549 -0.0711,0.47666 -0.007,0.0541 -0.008,0.0533 -0.009,0.0525 -0.01,0.0517 -0.0109,0.0509 -0.12247,0.57787 -0.0117,0.0504 -0.005,0.0194 -0.006,0.0248 -0.005,0.018 -0.0133,0.0488 -0.1518,0.52653 -0.0213,0.072 -0.0224,0.0709 -0.016,0.0464 -0.016,0.0461 -0.35053,0.9416 -0.0168,0.0456 -0.006,0.0142 -0.0118,0.0308 -0.0173,0.0445 -0.0181,0.0443 -0.0366,0.0875 -0.005,0.0107 -0.52466,1.16414 -0.0379,0.0859 -0.0384,0.0851 -0.0773,0.168 -0.0287,0.0626 -0.0475,0.10354 -0.3454,0.7744 -0.0371,0.0832 -0.0246,0.0573 -0.0111,0.0259 -0.0341,0.0837 -0.24934,0.6534 -0.0163,0.0421 -0.0237,0.0635 -0.0249,0.0719 -0.005,0.0137 -0.0269,0.0864 -0.1491,0.47127 -0.0152,0.0479 -0.0155,0.0549 -0.0128,0.0499 -0.0763,0.32061 -0.004,0.0153 -0.0237,0.10667 -0.0909,0.60885 -0.0132,0.0885 -0.008,0.0459 -0.007,0.0461 -0.009,0.0762 -0.005,0.0419 -0.006,0.0845 -0.0189,0.46066 -0.002,0.0395 -0.002,0.0616 0.002,0.1392 0.009,0.24781 0.006,0.16799 0.007,0.10454 0.0719,0.58006 0.003,0.0267 0.003,0.0269 0.007,0.0541 0.0189,0.1112 0.0858,0.41727 0.0163,0.0711 0.0218,0.0947 0.19214,0.67687 0.0472,0.15893 0.0315,0.0931 0.2442,0.65267 0.0421,0.11146 0.0264,0.0648 0.0211,0.0491 0.0659,0.1464 0.17385,0.386 0.0296,0.0664 0.009,0.0203 0.0218,0.0472 0.0333,0.0683 0.0349,0.0693 0.0563,0.10587 0.0237,0.0471 0.2894,0.57473 0.24347,0.4334 0.0785,0.13957 0.003,0.005 0.0507,0.0849 0.0384,0.0642 0.26512,0.44455 2.6e-4,5.3e-4 0.1224,0.19227 0.32487,0.5104 -0.024,0.007 -1.39205,0.41465 -3.28423,0.9782 -0.0555,-0.084 -0.4708,-0.7348 -0.1776,-0.2848 -0.77586,-1.37646 -0.0693,-0.11814 -0.008,-0.0138 -0.0566,-0.1014 -0.0194,-0.038 -0.13159,-0.25852 -0.28453,-0.594 -0.0493,-0.1072 -0.0304,-0.0701 -0.0288,-0.0693 -0.0136,-0.0344 -0.0131,-0.0339 -0.0128,-0.0339 -0.28578,-0.70726 -0.0648,-0.16027 -0.0184,-0.0504 -0.0229,-0.0667 -0.0264,-0.0819 -0.16573,-0.50967 -0.0123,-0.0425 -0.0157,-0.054 -0.13053,-0.50893 -0.0144,-0.0555 -0.001,-0.006 -0.032,-0.14072 -0.0689,-0.37153 -0.0513,-0.27674 -0.0296,-0.18426 -0.055,-0.68567 -0.0107,-0.1064 -0.006,-0.0896 -10e-6,-0.007 -2.6e-4,-0.14319 0.007,-0.506 0.002,-0.0492 0.003,-0.0641 0.0345,-0.38133 0.016,-0.14373 0.0447,-0.3124 0.0748,-0.3696 0.0363,-0.192 0.0126,-0.0496 0.0132,-0.052 0.11734,-0.43707 0.0137,-0.0461 0.0209,-0.0701 0.20753,-0.60867 0.0539,-0.152 0.17013,-0.4202 0.0893,-0.2184 0.37474,-0.825 0.15653,-0.33813 0.54633,-1.18507 0.12646,-0.2784 0.0482,-0.10613 0.2024,-0.49867 0.0249,-0.0624 0.0367,-0.0922 0.0325,-0.0904 0.2398,-0.70766 0.0111,-0.0337 0.0192,-0.0583 0.0277,-0.0941 0.0764,-0.30434 0.0622,-0.24786 0.0157,-0.0597 0.0173,-0.0731 0.02,-0.0995 0.0128,-0.0763 0.007,-0.0517 0.006,-0.0525 0.0155,-0.10454 0.11067,-0.74833 0.009,-0.1072 4e-4,-0.008 0.0131,-0.25294 0.007,-0.13538"
         inkscape:connector-curvature="0" />
    </g>
  </g>
</svg>
