<?xml version="1.0" encoding="UTF-8" standalone="no"?>
<!-- Created with Inkscape (http://www.inkscape.org/) -->

<svg
   xmlns:dc="http://purl.org/dc/elements/1.1/"
   xmlns:cc="http://creativecommons.org/ns#"
   xmlns:rdf="http://www.w3.org/1999/02/22-rdf-syntax-ns#"
   xmlns:svg="http://www.w3.org/2000/svg"
   xmlns="http://www.w3.org/2000/svg"
   xmlns:xlink="http://www.w3.org/1999/xlink"
   xmlns:sodipodi="http://sodipodi.sourceforge.net/DTD/sodipodi-0.dtd"
   xmlns:inkscape="http://www.inkscape.org/namespaces/inkscape"
   width="16mm"
   height="16mm"
   viewBox="0 0 16 16"
   version="1.1"
   id="svg1495"
   inkscape:version="0.92.2 (5c3e80d, 2017-08-06)"
   sodipodi:docname="DiceSpin.svg">
  <defs
     id="defs1489">
    <mask
       id="mask2052"
       height="1"
       width="1"
       y="0"
       x="0"
       maskUnits="userSpaceOnUse">
      <image
         sodipodi:absref="C:\Users\mike\Dropbox\Laser Cutter\Gas Lands\Gaslands_Skid_Dice_Labels_img0.png"
         xlink:href="Gaslands_Skid_Dice_Labels_img0.png"
         width="1"
         height="1"
         style="image-rendering:optimizeSpeed"
         preserveAspectRatio="none"
         id="image2054" />
    </mask>
  </defs>
  <sodipodi:namedview
     id="base"
     pagecolor="#ffffff"
     bordercolor="#666666"
     borderopacity="1.0"
     inkscape:pageopacity="0.0"
     inkscape:pageshadow="2"
     inkscape:zoom="7.9195959"
     inkscape:cx="54.994774"
     inkscape:cy="35.512951"
     inkscape:document-units="mm"
     inkscape:current-layer="layer1"
     showgrid="false"
     inkscape:window-width="1920"
     inkscape:window-height="1017"
     inkscape:window-x="-8"
     inkscape:window-y="-8"
     inkscape:window-maximized="1" />
  <metadata
     id="metadata1492">
    <rdf:RDF>
      <cc:Work
         rdf:about="">
        <dc:format>image/svg+xml</dc:format>
        <dc:type
           rdf:resource="http://purl.org/dc/dcmitype/StillImage" />
        <dc:title></dc:title>
      </cc:Work>
    </rdf:RDF>
  </metadata>
  <g
     inkscape:label="Layer 1"
     inkscape:groupmode="layer"
     id="layer1"
     transform="translate(0,-281)">
    <g
       id="g2113"
       transform="matrix(0.10692794,0,0,0.10693133,17.462966,281.20142)"
       style="stroke-width:0.92928571;stroke-miterlimit:4;stroke-dasharray:none">
      <path
         sodipodi:nodetypes="ccsccscccccccccscsccccsccccccccccccccccccccsscccccccsccccccccsccccscccccscscsscsccccscccccsscccccsccccscccssscsccccsscccccssccsccsccccssscscccccccccccscccsscccsccccsccsccccccc"
         inkscape:connector-curvature="0"
         id="path2088"
         d="m -99.199847,134.51744 c -1.819013,-0.11342 -3.673673,-0.32631 -4.121453,-0.4731 -0.44779,-0.14678 -1.81415,-0.3554 -3.03635,-0.46359 -1.22221,-0.10819 -2.65712,-0.35016 -3.1887,-0.53771 -0.53157,-0.18755 -1.66553,-0.42607 -2.5199,-0.53004 -0.85437,-0.10398 -1.85517,-0.34226 -2.224,-0.52953 -0.36883,-0.18727 -1.14273,-0.42632 -1.71979,-0.53123 -0.57705,-0.10491 -1.47144,-0.40284 -1.98753,-0.66206 -0.5161,-0.25921 -1.40907,-0.55629 -1.98438,-0.66018 -0.57531,-0.10388 -1.17789,-0.29292 -1.33906,-0.42008 -0.28714,-0.22655 -2.50193,-1.04002 -4.33717,-1.593 -0.50933,-0.15346 -1.2237,-0.43591 -1.5875,-0.62766 -0.36381,-0.19176 -1.25677,-0.60903 -1.98438,-0.92727 -2.70748,-1.18423 -4.24817,-1.96112 -4.7625,-2.40148 -0.86397,-0.73973 -2.70289,-0.76297 -2.95668,-0.0374 -0.31898,0.91202 -2.80221,5.09323 -3.02487,5.09323 -0.12498,0 -0.52891,0.59531 -0.89762,1.32292 -0.3687,0.7276 -0.76934,1.32291 -0.89031,1.32291 -0.34773,0 -1.42537,-2.8049 -2.2872,-5.95312 -0.19918,-0.72761 -0.54276,-1.79917 -0.76351,-2.38125 -0.22076,-0.58209 -0.4066,-1.25064 -0.41299,-1.48568 -0.006,-0.23503 -0.23248,-0.71128 -0.50244,-1.05833 -0.26996,-0.34704 -0.57526,-1.08947 -0.67845,-1.64983 -0.10319,-0.56036 -0.34972,-1.3938 -0.54786,-1.85208 -0.47668,-1.10254 -1.13722,-3.15227 -1.56756,-4.86423 -0.1915,-0.76183 -0.47238,-1.53574 -0.62418,-1.71979 -0.1518,-0.18406 -0.31667,-0.86254 -0.36637,-1.50774 l -0.0904,-1.1731 1.32291,-0.50459 c 0.72761,-0.27753 1.91823,-0.61788 2.64584,-0.75634 0.7276,-0.13846 1.85869,-0.42425 2.51354,-0.63508 1.30802,-0.42114 3.55958,-1.01784 5.84028,-1.54777 0.81106,-0.18846 1.8231,-0.52445 2.24896,-0.74664 0.71453,-0.3728 1.77804,-0.68053 5.66909,-1.64034 0.80037,-0.19743 1.8246,-0.51169 2.27609,-0.69835 1.85303,-0.76611 1.78673,-0.32688 -0.70786,4.68916 -1.28976,2.59342 -2.34884,4.9832 -2.3535,5.31062 -0.009,0.63536 0.83234,1.64821 1.38058,1.66192 0.1819,0.005 0.92604,0.30112 1.65365,0.65904 0.7276,0.35792 1.50746,0.65186 1.73302,0.65319 0.22556,0.001 0.52321,0.10936 0.66146,0.24007 0.31404,0.29693 3.41834,1.52069 4.48469,1.76794 0.43656,0.10122 0.91439,0.27787 1.06185,0.39256 0.14745,0.11469 0.86183,0.35239 1.5875,0.52824 0.72567,0.17585 1.67658,0.53139 2.11314,0.7901 0.43656,0.25871 1.38906,0.55503 2.11667,0.65848 0.7276,0.10345 1.70136,0.3424 2.1639,0.53099 0.46255,0.1886 1.53411,0.42132 2.38125,0.51717 0.84715,0.0958 2.07605,0.33994 2.73089,0.54243 1.39269,0.43065 9.226873,1.04765 13.229173,1.04191 4.10773,-0.006 11.68817,-0.6167 13.14702,-1.05933 0.70002,-0.21239 1.63377,-0.38745 2.075,-0.38903 0.44123,-0.002 1.45326,-0.18687 2.24896,-0.41177 0.7957,-0.2249 2.1611,-0.55968 3.03422,-0.74395 0.87313,-0.18427 1.87967,-0.4937 2.23676,-0.6876 0.35709,-0.19391 1.19052,-0.50638 1.85208,-0.69438 2.18077,-0.61973 7.1142,-2.41879 7.55283,-2.75428 0.14552,-0.11131 0.56224,-0.28726 0.92604,-0.39101 2.01969,-0.57598 7.45662,-3.05377 8.9449,-4.07648 0.39182,-0.26925 1.84349,-1.11386 3.22594,-1.87692 5.02529,-2.77378 5.4355,-3.00734 6.12626,-3.4881 0.38626,-0.26884 0.79647,-0.48879 0.91156,-0.48879 0.11509,0 0.51343,-0.28268 0.8852,-0.62818 0.93593,-0.86981 3.24281,-2.44411 3.87583,-2.64503 0.59578,-0.18909 2.34761,1.48363 3.69486,3.52798 0.42799,0.64944 1.50411,1.95913 2.39138,2.91042 1.64925,1.76824 3.54616,4.30769 3.54616,4.74736 0,0.37718 -1.75062,1.63587 -4.23334,3.04378 -1.23693,0.70144 -2.54661,1.55007 -2.91041,1.88583 -0.36381,0.33577 -1.85209,1.22226 -3.3073,1.96996 -1.4552,0.74771 -3.30067,1.70018 -4.10104,2.11661 -0.80036,0.41642 -2.28864,1.13672 -3.30729,1.60066 -1.01865,0.46395 -2.03068,0.98507 -2.24896,1.15805 -0.21828,0.17298 -1.05172,0.59571 -1.85208,0.93939 -0.80037,0.34368 -1.94952,0.84882 -2.55367,1.12253 -0.60415,0.27371 -1.43759,0.6058 -1.85209,0.73799 -0.41449,0.13218 -1.58705,0.5534 -2.6057,0.93605 -1.01865,0.38265 -2.31107,0.80873 -2.87206,0.94686 -0.56099,0.13813 -1.3349,0.41042 -1.71979,0.60508 -0.3849,0.19466 -1.1592,0.4372 -1.72067,0.53896 -0.56147,0.10176 -1.51397,0.40086 -2.11667,0.66467 -1.39674,0.61137 -3.9447,1.26775 -6.68716,1.72266 -1.18347,0.19632 -2.3741,0.47243 -2.64583,0.61359 -0.27174,0.14116 -1.5061,0.33903 -2.74303,0.43972 -1.23692,0.10068 -2.99076,0.35179 -3.89742,0.55801 -1.98778,0.45212 -14.64899,0.70623 -19.65049,0.39437 z m 47.48995,-89.443002 c -0.13368,-0.216297 0.25278,-1.10181 1.78784,-4.096581 0.29837,-0.582083 0.6835,-1.236927 0.85585,-1.455209 0.96029,-1.216239 1.98927,-3.524011 1.98927,-4.461512 0,-1.219372 -0.14063,-1.353892 -2.38125,-2.277817 -2.14885,-0.886081 -3.94928,-1.682969 -4.60244,-2.037088 -0.54156,-0.29361 -2.74489,-1.08454 -4.65797,-1.672079 -1.80348,-0.553871 -3.70316,-1.216602 -5.02709,-1.753759 -0.65484,-0.265692 -1.87565,-0.601475 -2.71291,-0.746183 -0.83725,-0.144709 -1.73388,-0.376351 -1.99251,-0.514763 -0.25862,-0.138411 -1.35953,-0.333026 -2.44646,-0.432475 -1.08694,-0.09945 -2.63109,-0.377118 -3.43145,-0.617048 -2.18136,-0.653915 -19.37714,-0.644972 -22.09271,0.01148 -1.01864,0.246245 -2.62087,0.522838 -3.5605,0.614649 -0.939633,0.09181 -2.070733,0.317888 -2.513543,0.502404 -0.44282,0.184512 -1.45997,0.421296 -2.26033,0.526184 -0.80037,0.104889 -1.93146,0.408033 -2.51355,0.673653 -0.58208,0.265618 -2.12989,0.808615 -3.43958,1.206657 -2.66144,0.80887 -4.76141,1.563975 -6.36738,2.289579 -0.59165,0.267314 -1.2016,0.486027 -1.35544,0.486027 -0.31565,0 -1.94872,0.685699 -4.78883,2.010756 -1.06058,0.494814 -2.0171,0.89966 -2.12559,0.89966 -0.1085,0 -0.81365,0.397116 -1.56702,0.882481 -0.75336,0.485362 -2.35669,1.393735 -3.56295,2.018602 -1.20626,0.624866 -2.62905,1.38861 -3.16176,1.697207 -0.5327,0.308596 -1.66379,0.960313 -2.51354,1.448255 -0.84974,0.487942 -1.72358,1.096213 -1.94186,1.351714 -0.21828,0.2555 -1.14243,0.866801 -2.05367,1.358447 -1.98336,1.070097 -2.10006,1.026819 -3.71079,-1.376077 -0.62384,-0.930648 -1.71079,-2.287399 -2.41544,-3.015003 -0.70465,-0.727605 -1.83389,-2.173656 -2.50943,-3.21345 -0.67553,-1.039794 -1.40429,-2.036638 -1.61946,-2.215211 -1.02384,-0.849709 -0.46907,-1.347152 5.01103,-4.493215 0.6337,-0.363802 1.61221,-0.967951 2.17445,-1.342554 1.18438,-0.789104 2.85067,-1.706266 3.80039,-2.091819 0.36381,-0.147691 0.84006,-0.387948 1.05834,-0.533903 0.21828,-0.145955 0.69453,-0.38408 1.05833,-0.529167 0.3638,-0.145087 0.84005,-0.383212 1.05833,-0.529166 0.21828,-0.145955 0.69453,-0.38408 1.05834,-0.529167 0.3638,-0.145087 0.84005,-0.373671 1.05833,-0.507968 0.35835,-0.220475 3.50245,-1.716509 6.61458,-3.147378 0.65485,-0.301077 1.54782,-0.623874 1.98438,-0.717328 0.43656,-0.09345 1.15094,-0.325874 1.5875,-0.516493 1.51786,-0.662757 3.7098,-1.422895 4.63021,-1.605698 0.50932,-0.101158 1.22526,-0.336653 1.59098,-0.523325 0.36572,-0.186671 1.23032,-0.424185 1.92133,-0.527806 0.69101,-0.103624 1.54166,-0.412806 1.89033,-0.687068 0.34867,-0.274264 1.00587,-0.49866 1.46045,-0.49866 0.45458,0 1.50737,-0.225967 2.33952,-0.502147 0.83216,-0.276183 2.16785,-0.581809 2.96822,-0.67917 0.80036,-0.09736 2.05052,-0.336494 2.77812,-0.531402 0.72761,-0.194908 2.39448,-0.43706 3.70417,-0.538113 1.309693,-0.101054 3.333753,-0.35017 4.497913,-0.55359 2.92338,-0.510815 15.33288,-0.510815 18.25625,0 1.16417,0.20342 3.18823,0.457576 4.49792,0.564793 1.30969,0.107214 2.80067,0.342503 3.31329,0.522864 0.51261,0.180361 1.70324,0.416187 2.64583,0.52406 0.94259,0.107874 2.01302,0.349306 2.37874,0.53652 0.36572,0.187211 1.25869,0.425468 1.98438,0.52946 0.72568,0.103992 1.67661,0.403175 2.11318,0.664853 0.43656,0.261676 1.27,0.563266 1.85208,0.670198 0.58208,0.106934 1.29646,0.343368 1.5875,0.525412 0.29104,0.182041 0.91081,0.410498 1.37726,0.50768 0.46645,0.09718 1.83567,0.594775 3.04271,1.105765 1.20704,0.51099 2.49227,1.022297 2.85607,1.136243 1.06215,0.332668 5.26359,2.400842 5.43252,2.674178 0.33237,0.537784 3.04825,1.605589 3.87769,1.524598 0.77217,-0.0754 0.99071,-0.321694 2.31958,-2.614184 1.52462,-2.630183 3.41139,-5.274263 3.76362,-5.274263 0.3192,0 0.94647,1.369187 1.15573,2.522686 0.10468,0.577054 0.35301,1.370698 0.55185,1.763654 0.19883,0.392957 0.36674,0.988269 0.37312,1.322917 0.006,0.334648 0.19117,1.084702 0.41062,1.666785 0.51746,1.372547 1.38873,4.210661 1.70571,5.55625 0.13713,0.582084 0.48051,1.534584 0.76309,2.116667 0.62546,1.288407 1.26342,3.212796 1.7104,5.159375 0.18378,0.800365 0.4738,1.715273 0.64448,2.033127 0.58733,1.093727 0.38871,1.352087 -1.4756,1.919502 -2.37791,0.723733 -4.5893,1.291871 -6.68072,1.716376 -0.94589,0.19199 -2.07698,0.531553 -2.51355,0.754584 -0.43656,0.223033 -1.32953,0.490389 -1.98437,0.594124 -0.65484,0.103735 -1.48828,0.336934 -1.85208,0.518219 -0.36381,0.181284 -1.30516,0.4119 -2.0919,0.512482 -0.78674,0.100581 -1.73924,0.338706 -2.11667,0.529166 -0.37742,0.190461 -1.33129,0.428768 -2.1197,0.529569 -0.7884,0.100801 -1.8276,0.347956 -2.30932,0.549233 -0.48747,0.203676 -0.94087,0.260765 -1.02246,0.128741 z"
         style="fill:none;stroke:#0000ff;stroke-width:0.92928571;stroke-miterlimit:4;stroke-dasharray:none;stroke-opacity:1" />
      <g
         id="flowRoot2090"
         style="font-style:normal;font-variant:normal;font-weight:bold;font-stretch:normal;font-size:96px;line-height:125%;font-family:sans-serif;-inkscape-font-specification:'sans-serif Bold';letter-spacing:0px;word-spacing:0px;fill:none;fill-opacity:1;stroke:#0000ff;stroke-width:1.84662032;stroke-linecap:butt;stroke-linejoin:miter;stroke-miterlimit:4;stroke-dasharray:none;stroke-opacity:1"
         transform="matrix(0.50323595,0,0,0.50323595,154.13884,-43.639331)"
         aria-label="SPIN">
        <path
           id="path2098"
           style="fill:none;stroke:#0000ff;stroke-width:1.84662032;stroke-miterlimit:4;stroke-dasharray:none;stroke-opacity:1"
           d="m -551.64648,244.59543 q 0,10.3125 -8.76563,16.78125 -8.71875,6.42187 -23.71875,6.42187 -8.67187,0 -15.14062,-1.5 -6.42188,-1.54687 -12.04688,-3.89062 v -16.73438 h 1.96875 q 5.57813,4.45313 12.46875,6.84375 6.9375,2.39063 13.3125,2.39063 1.64063,0 4.3125,-0.28125 2.67188,-0.28125 4.35938,-0.9375 2.0625,-0.84375 3.375,-2.10938 1.35937,-1.26562 1.35937,-3.75 0,-2.29687 -1.96875,-3.9375 -1.92187,-1.6875 -5.67187,-2.57812 -3.9375,-0.9375 -8.34375,-1.73438 -4.35938,-0.84375 -8.20313,-2.10937 -8.8125,-2.85938 -12.70312,-7.73438 -3.84375,-4.92187 -3.84375,-12.1875 0,-9.75 8.71875,-15.89062 8.76562,-6.1875 22.5,-6.1875 6.89062,0 13.59375,1.35937 6.75,1.3125 11.67187,3.32813 v 16.07812 h -1.92187 q -4.21875,-3.375 -10.35938,-5.625 -6.09375,-2.29687 -12.46875,-2.29687 -2.25,0 -4.5,0.32812 -2.20312,0.28125 -4.26562,1.125 -1.82813,0.70313 -3.14063,2.15625 -1.3125,1.40625 -1.3125,3.23438 0,2.76562 2.10938,4.26562 2.10937,1.45313 7.96875,2.67188 3.84375,0.79687 7.35937,1.54687 3.5625,0.75 7.64063,2.0625 8.01562,2.625 11.8125,7.17188 3.84375,4.5 3.84375,11.71875 z"
           inkscape:connector-curvature="0" />
        <path
           id="path2100"
           style="fill:none;stroke:#0000ff;stroke-width:1.84662032;stroke-miterlimit:4;stroke-dasharray:none;stroke-opacity:1"
           d="m -481.66211,218.7673 q 0,4.6875 -1.64062,9.1875 -1.64063,4.45313 -4.6875,7.5 -4.17188,4.125 -9.32813,6.23438 -5.10937,2.10937 -12.75,2.10937 h -11.20312 v 22.73438 h -18 v -69.79688 h 29.625 q 6.65625,0 11.20312,1.17188 4.59375,1.125 8.10938,3.42187 4.21875,2.76563 6.42187,7.07813 2.25,4.3125 2.25,10.35937 z m -18.60937,0.42188 q 0,-2.95313 -1.59375,-5.0625 -1.59375,-2.15625 -3.70313,-3 -2.8125,-1.125 -5.48437,-1.21875 -2.67188,-0.14063 -7.125,-0.14063 h -3.09375 v 20.90625 h 5.15625 q 4.59375,0 7.54687,-0.5625 3,-0.5625 5.01563,-2.25 1.73437,-1.5 2.48437,-3.5625 0.79688,-2.10937 0.79688,-5.10937 z"
           inkscape:connector-curvature="0" />
        <path
           id="path2102"
           style="fill:none;stroke:#0000ff;stroke-width:1.84662032;stroke-miterlimit:4;stroke-dasharray:none;stroke-opacity:1"
           d="m -431.22461,266.53293 h -40.875 v -12.375 h 11.4375 v -45.04688 h -11.4375 v -12.375 h 40.875 v 12.375 h -11.4375 v 45.04688 h 11.4375 z"
           inkscape:connector-curvature="0" />
        <path
           id="path2104"
           style="fill:none;stroke:#0000ff;stroke-width:1.84662032;stroke-miterlimit:4;stroke-dasharray:none;stroke-opacity:1"
           d="m -352.99023,266.53293 h -17.34375 l -29.625,-47.90625 v 47.90625 h -16.5 v -69.79688 h 21.51562 l 25.45313,39.98438 v -39.98438 h 16.5 z"
           inkscape:connector-curvature="0" />
      </g>
    </g>
  </g>
</svg>
